<?xml version="1.0" encoding="UTF-8" standalone="no"?>
<!DOCTYPE svg PUBLIC "-//W3C//DTD SVG 1.1//EN" "http://www.w3.org/Graphics/SVG/1.1/DTD/svg11.dtd">
<svg width="100%" height="100%" viewBox="0 0 2398 1277" version="1.1" xmlns="http://www.w3.org/2000/svg" xmlns:xlink="http://www.w3.org/1999/xlink" xml:space="preserve" xmlns:serif="http://www.serif.com/" style="fill-rule:evenodd;clip-rule:evenodd;stroke-linejoin:round;stroke-miterlimit:2;">
    <g transform="matrix(2.313488,0,0.139893,2.313488,451.646453,-140.175309)">
        <path d="M-185.95,237.65L-161.5,237.65C-160.068,237.65 -159.211,236.989 -158.929,235.668C-156.908,226.196 -154.948,216.751 -153.049,207.335C-151.15,197.918 -149.202,188.529 -147.205,179.167C-146.241,174.651 -143.502,172.393 -138.986,172.393L-113.048,172.393C-108.533,172.393 -106.757,174.651 -107.72,179.167C-109.718,188.529 -111.748,197.918 -113.813,207.335C-115.877,216.751 -117.919,226.196 -119.94,235.668C-120.222,236.989 -119.647,237.65 -118.216,237.65L-92.278,237.65C-87.762,237.65 -85.986,239.908 -86.95,244.424C-87.678,247.838 -88.44,251.28 -89.235,254.749C-90.031,258.218 -90.804,261.715 -91.556,265.24C-92.52,269.755 -95.259,272.013 -99.775,272.013L-125.547,272.013C-126.979,272.013 -127.836,272.674 -128.118,273.996C-131.925,291.838 -135.676,309.68 -139.373,327.523C-143.07,345.365 -146.821,363.207 -150.628,381.05C-151.592,385.565 -154.331,387.823 -158.847,387.823L-185.115,387.823C-189.63,387.823 -191.407,385.565 -190.443,381.05C-186.636,363.207 -182.747,345.365 -178.775,327.523C-174.803,309.68 -170.913,291.838 -167.107,273.996C-166.754,272.343 -167.74,271.545 -170.065,271.6C-172.39,271.655 -185.647,271.848 -188.691,272.178C-191.736,272.509 -194.332,272.288 -196.48,271.517C-198.629,270.746 -199.339,268.654 -198.61,265.24L-194.169,244.424C-193.781,242.605 -193.105,241.153 -192.141,240.067C-191.29,239.107 -190.213,238.434 -188.912,238.045C-188.029,237.782 -187.041,237.65 -185.95,237.65Z" style="fill:#8B5CF6;"/>
    </g>
    <g transform="matrix(2.313488,0,0.139893,2.313488,451.646453,-140.175309)">
        <path d="M464.584,361.91C461.431,367.076 458.034,371.499 454.393,375.18C445.561,384.108 435.289,388.572 423.577,388.572C411.865,388.572 402.889,385.74 396.649,380.076C390.409,374.412 387.289,366.3 387.289,355.74C387.289,353.436 387.433,351.036 387.721,348.54C388.009,346.044 388.441,343.452 389.017,340.764L391.321,329.532C391.705,327.804 391.993,326.076 392.185,324.348C392.377,322.62 392.473,320.796 392.473,318.876C392.473,314.268 391.609,310.812 389.881,308.508C388.153,306.204 385.561,305.052 382.105,305.052C379.225,305.052 376.105,305.868 372.745,307.5C370.707,308.49 368.44,309.886 365.944,311.688C362.745,313.936 360.501,317.314 359.71,321.072C356.886,334.265 349.733,368.244 346.949,381.467C346.298,384.558 343.505,386.844 340.379,386.844L311.651,386.844C309.817,386.844 308.121,386.047 307.006,384.659C305.89,383.271 305.465,381.43 305.84,379.615C312.668,346.608 341.028,209.472 346.725,181.932C347.322,179.043 349.742,176.782 352.659,176.388L381.705,172.463C383.755,172.185 385.76,172.878 387.121,174.333C388.481,175.788 389.04,177.838 388.63,179.87L368.63,279.168C368.461,280.009 368.883,280.822 369.652,281.137C370.422,281.452 371.34,281.188 371.875,280.497C381.389,268.221 403.961,239.627 410.485,231.209C411.659,229.694 413.63,229.044 415.374,229.596L444.664,238.856C446.196,239.341 447.269,240.665 447.438,242.278C447.606,243.89 446.84,245.515 445.459,246.475C433.576,254.734 408.804,272.327 398.612,279.41C398.047,279.803 397.802,280.515 398.019,281.134C398.236,281.752 398.86,282.116 399.527,282.013L399.529,282.012C400.777,281.82 401.977,281.724 403.129,281.724C412.921,281.724 420.649,284.796 426.313,290.94C431.977,297.084 434.809,305.244 434.809,315.42C434.809,317.34 434.713,319.212 434.521,321.036C434.329,322.86 434.041,324.636 433.657,326.364L430.489,340.764C430.105,343.068 429.769,344.988 429.481,346.524C429.193,348.06 429.049,349.212 429.049,349.98C429.049,353.628 429.961,356.316 431.785,358.044C433.609,359.772 436.441,360.636 440.281,360.636C445.081,360.636 449.209,359.004 452.665,355.74C454.555,353.955 456.589,351.108 458.766,347.198C457.781,343.884 456.868,340.213 456.223,336.419C455.741,331.912 455.651,327.167 455.952,322.184C457.739,292.636 467.848,269.064 486.28,251.471C504.713,233.877 527.237,225.08 553.853,225.08L555.883,225.08C563.93,225.08 571.487,226.104 578.556,228.153C579.336,228.387 580.2,228.258 580.918,227.801C581.636,227.344 582.134,226.607 582.28,225.785C585.03,210.285 596.357,146.344 596.391,146.153L596.391,146.152C597.194,141.681 599.999,136.698 603.785,134.027C611.417,128.641 630.803,125.39 640.007,134.027C643.202,137.025 643.888,141.929 643.039,146.408C639.8,163.448 635.325,187.954 629.815,216.621C614.679,295.342 606.869,338.707 606.385,346.714C605.901,354.722 609.042,358.726 615.809,358.726C621.674,358.726 629.71,356.936 636.952,350.079C641.904,345.39 642.204,341.656 642.852,333.304C641.477,325.958 641.046,318.053 641.558,309.588C642.532,293.475 646.85,279.101 654.511,266.466C662.172,253.831 672.427,243.834 685.275,236.473C698.123,229.112 712.662,225.432 728.89,225.432C744.887,225.432 758.636,229.054 770.137,236.299C781.639,243.544 790.343,253.426 796.252,265.945C802.16,278.464 804.641,292.548 803.695,308.197C802.72,324.309 798.553,338.596 791.192,351.057C783.831,363.518 773.938,373.285 761.513,380.356C749.088,387.427 734.646,390.962 718.185,390.962C701.841,390.962 687.759,387.571 675.94,380.79C666.702,375.49 659.228,368.544 653.518,359.951C645.883,370.615 634.926,379.276 624.784,383.763C616.657,387.598 609.098,389.515 602.105,389.515C582.648,389.515 569.851,382.734 563.716,369.173C563.589,368.888 563.323,368.696 563.009,368.66C562.695,368.625 562.374,368.751 562.156,368.996C549.726,382.901 534.615,389.853 516.822,389.853C498.552,389.853 483.532,383.65 471.764,371.244C469.016,368.348 466.623,365.236 464.584,361.91ZM725.897,260.555C717.087,260.555 709.584,262.902 703.389,267.597C697.193,272.291 692.367,278.29 688.912,285.593C685.457,292.896 683.487,300.546 683.003,308.545C682.548,316.079 683.704,323.324 686.471,330.279C689.238,337.234 693.444,342.914 699.09,347.319C704.735,351.724 711.615,353.926 719.729,353.926C728.539,353.926 736.006,351.695 742.129,347.232C748.253,342.769 753.007,337.002 756.39,329.931C759.774,322.86 761.707,315.326 762.191,307.327C762.66,299.561 761.633,292.113 759.108,284.984C756.583,277.855 752.561,272.002 747.042,267.423C741.523,262.844 734.475,260.555 725.897,260.555ZM557.333,251.471C542.897,251.471 531.119,256.94 521.998,267.88C512.878,278.82 506.874,295.117 503.986,316.771C503.637,318.801 503.409,320.718 503.3,322.523C502.631,333.575 504.75,342.372 509.655,348.914C514.56,355.455 521.186,358.726 529.531,358.726C542.81,358.726 553.566,349.961 561.799,332.432C562.871,330.16 563.639,327.771 564.082,325.332C566.077,314.377 572.52,278.863 575.343,263.296C576.164,258.773 573.584,254.528 569.271,253.303C564.952,252.082 560.973,251.471 557.333,251.471Z" style="fill:#8B5CF6;"/>
    </g>
    <g transform="matrix(2.313488,0,0.139893,2.313488,451.646453,-140.175309)">
        <path d="M-86.652,387.823C-91.167,387.823 -92.932,385.51 -91.945,380.884C-90.652,374.827 -89.283,368.797 -87.837,362.794C-86.391,356.792 -84.967,350.762 -83.564,344.704C-80.642,332.038 -77.774,319.372 -74.962,306.707C-72.149,294.041 -69.392,281.375 -66.689,268.709C-63.987,256.043 -61.34,243.377 -58.748,230.711C-56.155,218.045 -53.618,205.38 -51.136,192.714C-49.954,186.656 -48.805,180.626 -47.689,174.624C-46.574,168.621 -42.019,141.688 -40.726,135.63C-39.739,131.004 -36.988,128.691 -32.472,128.691L-7.361,128.691C-4.718,128.691 -3.101,129.242 -2.51,130.344C-1.918,131.445 -1.76,133.152 -2.033,135.465C-2.118,136.897 -2.392,138.439 -2.854,140.091C-3.317,141.743 -3.658,143.34 -3.877,144.882L-11.786,187.923C-14.026,198.937 -16.299,209.978 -18.605,221.047C-20.912,232.116 -23.252,243.212 -25.625,254.336C-25.672,254.556 -25.78,255.189 -25.948,256.236C-26.116,257.282 -25.87,257.805 -25.209,257.805C-24.658,257.805 -24.049,257.53 -23.381,256.979C-22.712,256.429 -22.233,255.988 -21.942,255.658C-5.537,241.23 12.853,234.015 33.229,234.015C41.929,234.015 49.654,235.75 56.404,239.22C63.153,242.689 68.163,247.728 71.434,254.336C74.705,260.944 75.353,268.874 73.379,278.126C69.737,295.197 66.276,312.324 62.995,329.505C59.715,346.687 56.254,363.813 52.611,380.884C51.624,385.51 48.873,387.823 44.357,387.823L18.42,387.823C15.777,387.823 14.16,387.272 13.568,386.171C12.977,385.07 12.819,383.362 13.092,381.05C13.45,377.305 14.282,372.762 15.587,367.42C16.892,362.078 17.912,357.425 18.648,353.46C20.723,343.217 22.847,333.002 25.021,322.814L31.56,292.168C33.228,284.349 32.277,278.484 28.705,274.574C25.134,270.664 19.604,268.709 12.114,268.709C2.863,268.709 -5.326,271.6 -12.452,277.382C-19.578,283.165 -25.466,290.241 -30.116,298.611C-34.765,306.982 -37.936,315.132 -39.628,323.062C-41.696,332.754 -43.813,342.419 -45.979,352.056L-52.495,381.05C-53.459,385.565 -56.198,387.823 -60.714,387.823L-86.652,387.823Z" style="fill:#8B5CF6;"/>
    </g>
    <g transform="matrix(2.313488,0,0.139893,2.313488,451.646453,-140.175309)">
        <path d="M97.394,272.341L105.836,232.772C106.88,227.878 109.66,225.432 114.176,225.432L139.618,225.432C144.133,225.432 145.869,227.878 144.825,232.772C139.579,257.361 134.381,281.979 129.233,306.627C124.084,331.276 118.886,355.894 113.64,380.482C112.596,385.376 109.816,387.823 105.3,387.823L79.198,387.823C74.682,387.823 72.946,385.376 73.99,380.482C77.836,362.459 81.737,344.435 85.692,326.412C89.648,308.388 93.548,290.364 97.394,272.341Z" style="fill:#8B5CF6;"/>
    </g>
    <g transform="matrix(2.313488,0,0.139893,2.313488,451.646453,-140.175309)">
        <path d="M195.738,229.231C199.813,229.231 201.648,231.214 201.242,235.179C201.103,237.382 200.908,239.584 200.658,241.787L199.909,248.395C199.862,248.616 199.837,249.249 199.834,250.295C199.831,251.342 200.105,251.865 200.656,251.865C201.207,251.865 201.8,251.534 202.437,250.873C203.073,250.213 203.537,249.717 203.828,249.387C212.246,240.906 221.59,234.793 231.861,231.049C242.131,227.304 252.498,225.432 262.962,225.432C271.552,225.432 279.073,227.221 285.523,230.801C291.973,234.38 296.702,239.447 299.71,246C302.717,252.553 302.728,269.094 300.801,278.126C297.159,295.197 293.698,312.324 290.417,329.505C287.137,346.687 283.676,363.813 280.033,380.884C279.046,385.51 276.295,387.823 271.779,387.823L245.842,387.823C241.657,387.823 239.881,385.565 240.514,381.05C241.194,376.314 242.1,371.55 243.232,366.759C244.364,361.968 245.381,357.205 246.281,352.469C248.333,342.336 250.428,332.258 252.566,322.236L258.981,292.168C260.65,284.349 259.643,278.484 255.962,274.574C252.281,270.664 246.695,268.709 239.206,268.709C229.844,268.709 221.551,271.573 214.326,277.3C207.102,283.027 201.137,290.076 196.433,298.446C191.728,306.817 188.518,315.022 186.803,323.062C184.735,332.754 182.618,342.419 180.452,352.056L173.935,381.05C172.972,385.565 170.232,387.823 165.717,387.823L139.779,387.823C135.263,387.823 133.499,385.51 134.486,380.884C135.802,374.717 137.195,368.576 138.664,362.464C140.133,356.351 141.569,350.266 142.972,344.208C148.801,318.436 154.994,283.915 160.493,258.143L165.216,236.005C166.18,231.489 168.919,229.231 173.435,229.231L195.738,229.231Z" style="fill:#8B5CF6;"/>
    </g>
    <g transform="matrix(2.313488,0,0.139893,2.313488,451.646453,-140.175309)">
        <path d="M108.12,176.831C110.045,167.808 115.062,160.056 123.171,153.576C131.28,147.096 139.846,143.856 148.869,143.856C158.057,143.856 165.428,147.178 170.982,153.822C176.537,160.466 178.317,168.464 176.322,177.815C174.397,186.839 169.403,194.672 161.341,201.317C153.279,207.961 144.655,211.283 135.467,211.283C126.116,211.283 118.722,207.879 113.284,201.071C107.846,194.262 106.125,186.182 108.12,176.831Z" style="fill:#8B5CF6;"/>
    </g>
    <g transform="matrix(2.313488,0,0.139893,2.313488,451.646453,-140.175309)">
        <path d="M259.69,60.59C290.837,60.59 310.729,85.878 304.084,117.025C297.438,148.172 266.756,173.459 235.609,173.459C204.462,173.459 184.57,148.172 191.215,117.025C197.861,85.878 228.543,60.59 259.69,60.59Z" style="fill:#8B5CF6;"/>
    </g>
    <g transform="matrix(2.313488,0,0.139893,2.313488,451.646453,-140.175309)">
        <path d="M729.039,432.059C732.377,419.927 744.808,412.192 756.782,414.796C768.756,417.4 775.768,429.363 772.431,441.494C745.733,538.54 649.674,605.41 550.047,593.033C507.889,587.795 471.438,569.16 444.124,541.885C391.779,592.22 318.733,619.834 244.033,610.553C168.908,601.22 108.791,556.643 77.009,495.302C40.783,515.272 -1.289,524.536 -44.016,519.227C-94.383,512.97 -136.605,487.587 -164.832,451.197C-172.215,441.679 -170.091,427.489 -160.091,419.53C-150.091,411.571 -135.977,412.837 -128.594,422.356C-106.917,450.301 -74.495,469.797 -35.815,474.602C4.297,479.586 43.656,467.841 74.983,444.803C80.723,440.581 87.936,439.122 94.535,440.846C101.134,442.571 106.384,447.287 108.768,453.632C131.039,512.919 183.958,557.446 252.234,565.928C320.053,574.354 386.176,545.123 428.791,494.524C433.339,489.125 439.985,485.946 446.842,485.89C453.699,485.834 460.018,488.908 464.004,494.238C485.672,523.21 518.687,543.493 558.248,548.408C634.755,557.913 708.538,506.584 729.039,432.059Z" style="fill:#8B5CF6;"/>
    </g>
</svg>
