<?xml version="1.0" encoding="UTF-8" standalone="no"?>
<!DOCTYPE svg PUBLIC "-//W3C//DTD SVG 1.1//EN" "http://www.w3.org/Graphics/SVG/1.1/DTD/svg11.dtd">
<svg width="100%" height="100%" viewBox="0 0 3877 103" version="1.1" xmlns="http://www.w3.org/2000/svg" xmlns:xlink="http://www.w3.org/1999/xlink" xml:space="preserve" xmlns:serif="http://www.serif.com/" style="fill-rule:evenodd;clip-rule:evenodd;stroke-linejoin:round;stroke-miterlimit:2;">
    <g transform="matrix(1,0,0,1,-59.0057,0.0001)">
        <g transform="matrix(1,0,0,1,13.1416,-256.172)">
            <path d="M3922.26,341.356C3915.42,342.85 3908.18,343.652 3900.7,343.652C3877.19,343.652 3856.13,335.739 3842.03,323.282C3827.93,335.739 3806.87,343.652 3783.36,343.652C3776.7,343.652 3770.24,343.017 3764.08,341.825C3750.15,352.369 3730.81,358.906 3709.44,358.906C3681.61,358.906 3657.22,347.819 3643.73,331.232C3631.85,336.868 3617.76,340.132 3602.66,340.132C3584.65,340.132 3568.08,335.487 3554.97,327.712C3541.03,342.328 3518.17,351.866 3492.36,351.866C3464.53,351.866 3440.14,340.778 3426.65,324.192C3414.77,329.827 3400.68,333.091 3385.58,333.091C3366.78,333.091 3349.55,328.031 3336.19,319.633C3322.68,336.145 3298.34,347.172 3270.59,347.172C3241.58,347.172 3216.3,335.122 3203.22,317.354C3190.52,324.298 3174.87,328.398 3157.95,328.398C3142.64,328.398 3128.37,325.042 3116.38,319.261C3102.37,333.347 3079.94,342.479 3054.69,342.479C3024.89,342.479 2999.03,329.766 2986.28,311.201C2972.33,321.813 2952.93,328.398 2931.48,328.398C2903.88,328.398 2879.66,317.492 2866.11,301.132C2852.56,310.067 2834.78,315.491 2815.32,315.491C2800.58,315.491 2786.8,312.381 2775.1,306.992C2761.8,315.231 2744.74,320.184 2726.14,320.184C2710.49,320.184 2695.93,316.678 2683.78,310.659C2669.72,324.298 2647.66,333.091 2622.88,333.091C2598.21,333.091 2576.24,324.379 2562.18,310.847C2548.95,318.885 2532.1,323.704 2513.75,323.704C2492.32,323.704 2472.92,317.126 2458.98,306.523C2444.87,319.171 2423.65,327.224 2399.93,327.224C2378.7,327.224 2359.46,320.766 2345.54,310.333C2332.22,327.446 2307.43,338.958 2279.08,338.958C2248.12,338.958 2221.42,325.241 2209.24,305.496C2199.43,308.898 2188.51,310.797 2176.99,310.797C2167.44,310.797 2158.29,309.491 2149.85,307.104C2135.76,320.092 2114.24,328.398 2090.16,328.398C2067.26,328.398 2046.68,320.889 2032.6,308.986C2020.26,315.31 2005.33,319.011 1989.25,319.011C1983.72,319.011 1978.32,318.573 1973.12,317.74C1959.13,328.646 1939.45,335.438 1917.67,335.438C1895.87,335.438 1876.18,328.633 1862.18,317.711C1848.09,329.997 1827.17,337.785 1803.85,337.785C1781.03,337.785 1760.51,330.324 1746.43,318.486C1733.07,326.868 1715.86,331.918 1697.07,331.918C1682.21,331.918 1668.33,328.755 1656.56,323.28C1642.99,332.302 1625.12,337.785 1605.55,337.785C1589.44,337.785 1574.48,334.068 1562.12,327.72C1550.24,333.35 1536.16,336.612 1521.07,336.612C1493.34,336.612 1469.02,325.602 1455.5,309.113C1446.74,311.714 1437.19,313.144 1427.19,313.144C1409.42,313.144 1393.04,308.618 1380.01,301.024C1366.47,317.444 1342.21,328.398 1314.55,328.398C1294.08,328.398 1275.46,322.396 1261.68,312.617C1247.6,324.456 1227.08,331.918 1204.25,331.918C1183.68,331.918 1164.99,325.86 1151.19,316.001C1137.57,325.165 1119.56,330.745 1099.82,330.745C1085.51,330.745 1072.12,327.814 1060.64,322.713C1046.8,332.766 1027.92,338.958 1007.12,338.958C979.015,338.958 954.413,327.648 941.01,310.785C928.09,318.153 911.961,322.531 894.476,322.531C876.255,322.531 859.508,317.778 846.329,309.84C833.104,327.224 808.111,338.958 779.483,338.958C750.674,338.958 725.546,327.075 712.388,309.509C698.29,322.464 676.806,330.745 652.757,330.745C633.02,330.745 615.01,325.167 601.394,316.005C587.291,328.598 566.116,336.612 542.459,336.612C517.688,336.612 495.638,327.826 481.579,314.197C471.285,318.029 459.683,320.184 447.414,320.184C423.533,320.184 402.182,312.019 388.08,299.219C373.985,311.342 353.218,319.011 330.075,319.011C318.482,319.011 307.486,317.087 297.625,313.642C283.683,328.252 260.833,337.785 235.03,337.785C211.639,337.785 190.674,329.95 176.572,317.601C164.894,322.96 151.158,326.051 136.466,326.051C129.219,326.051 122.206,325.299 115.557,323.894C101.886,333.249 83.685,338.958 63.715,338.958C57.57,338.958 51.593,338.417 45.864,337.396L45.864,256.172L3922.26,256.172L3922.26,341.356Z" style="fill:rgb(103,76,232);"/>
        </g>
    </g>
</svg>
