<?xml version="1.0" encoding="UTF-8" standalone="no"?>
<!DOCTYPE svg PUBLIC "-//W3C//DTD SVG 1.1//EN" "http://www.w3.org/Graphics/SVG/1.1/DTD/svg11.dtd">
<svg width="100%" height="100%" viewBox="0 0 2107 1751" version="1.1" xmlns="http://www.w3.org/2000/svg" xmlns:xlink="http://www.w3.org/1999/xlink" xml:space="preserve" xmlns:serif="http://www.serif.com/" style="fill-rule:evenodd;clip-rule:evenodd;stroke-linejoin:round;stroke-miterlimit:2;">
    <g transform="matrix(1,0,0,1,-3321.12,-4721.37)">
        <g transform="matrix(1,0,0,1,-0.64805,-0.185594)">
            <g transform="matrix(1,0,0,1,-121.457,335.453)">
                <g transform="matrix(0.904687,0,0,1.07883,2819.12,3510.47)">
                    <ellipse cx="1799.68" cy="1420.98" rx="979.153" ry="547.4" style="fill:rgb(103,76,232);"/>
                </g>
                <g transform="matrix(0.934108,0,0,1.23543,2946.7,3671.21)">
                    <ellipse cx="2113.22" cy="896.709" rx="316.104" ry="239.006" style="fill:rgb(103,76,232);"/>
                </g>
                <g transform="matrix(0.934108,0,0,1.23543,2648.59,3594.11)">
                    <ellipse cx="2113.22" cy="896.709" rx="316.104" ry="239.006" style="fill:rgb(103,76,232);"/>
                </g>
                <g transform="matrix(0.934108,0,0,1.23543,2340.19,3573.55)">
                    <ellipse cx="2113.22" cy="896.709" rx="316.104" ry="239.006" style="fill:rgb(103,76,232);"/>
                </g>
                <g transform="matrix(0.934108,0,0,1.23543,2042.08,3624.95)">
                    <ellipse cx="2113.22" cy="896.709" rx="316.104" ry="239.006" style="fill:rgb(103,76,232);"/>
                </g>
                <g transform="matrix(0.934108,0,0,1.23543,1764.52,3804.85)">
                    <ellipse cx="2113.22" cy="896.709" rx="316.104" ry="239.006" style="fill:rgb(103,76,232);"/>
                </g>
                <g transform="matrix(0.934108,0,0,1.23543,1805.64,4118.38)">
                    <ellipse cx="2113.22" cy="896.709" rx="316.104" ry="239.006" style="fill:rgb(103,76,232);"/>
                </g>
                <g transform="matrix(0.934108,0,0,1.23543,2093.48,4293.14)">
                    <ellipse cx="2113.22" cy="896.709" rx="316.104" ry="239.006" style="fill:rgb(103,76,232);"/>
                </g>
                <g transform="matrix(0.934108,0,0,1.23543,2468.69,4339.4)">
                    <ellipse cx="2113.22" cy="896.709" rx="316.104" ry="239.006" style="fill:rgb(103,76,232);"/>
                </g>
                <g transform="matrix(0.934108,0,0,1.23543,2761.67,4288)">
                    <ellipse cx="2113.22" cy="896.709" rx="316.104" ry="239.006" style="fill:rgb(103,76,232);"/>
                </g>
                <g transform="matrix(0.934108,0,0,1.23543,3075.2,4246.88)">
                    <ellipse cx="2113.22" cy="896.709" rx="316.104" ry="239.006" style="fill:rgb(103,76,232);"/>
                </g>
                <g transform="matrix(0.934108,0,0,1.23543,3265.38,4072.12)">
                    <ellipse cx="2113.22" cy="896.709" rx="316.104" ry="239.006" style="fill:rgb(103,76,232);"/>
                </g>
                <g transform="matrix(0.934108,0,0,1.23543,3280.8,3830.55)">
                    <ellipse cx="2113.22" cy="896.709" rx="316.104" ry="239.006" style="fill:rgb(103,76,232);"/>
                </g>
                <g transform="matrix(0.336279,0,0,0.44511,3866.87,5481.12)">
                    <ellipse cx="2113.22" cy="896.709" rx="316.104" ry="239.006" style="fill:rgb(103,76,232);"/>
                </g>
                <g transform="matrix(0.224186,0,0,0.296504,4253.35,5799.88)">
                    <ellipse cx="2113.22" cy="896.709" rx="316.104" ry="239.006" style="fill:rgb(103,76,232);"/>
                </g>
            </g>
        </g>
        <g transform="matrix(1,0,0,1,-0.64805,-0.185594)">
            <g transform="matrix(0.729529,0.328311,-0.220626,0.490247,2035.62,1318.7)">
                <g transform="matrix(0.41172,0,0,0.931629,2683.25,3885.09)">
                    <path d="M5212.65,842.998L5212.65,2016.45C5212.65,2042.48 5180.52,2063.62 5140.94,2063.62L4997.5,2063.62C4957.92,2063.62 4925.78,2042.48 4925.78,2016.45L4925.78,842.998C4925.78,816.967 4957.92,795.834 4997.5,795.834L5140.94,795.834C5180.52,795.834 5212.65,816.967 5212.65,842.998Z" style="fill:white;"/>
                </g>
                <g transform="matrix(0.41172,0,0,0.0931629,2683.25,4422.61)">
                    <path d="M5212.65,1112.78L5212.65,1746.67C5212.65,1921.6 5191.06,2063.62 5164.46,2063.62L4973.98,2063.62C4947.38,2063.62 4925.78,1921.6 4925.78,1746.67L4925.78,1112.78C4925.78,937.852 4947.38,795.834 4973.98,795.834L5164.46,795.834C5191.06,795.834 5212.65,937.852 5212.65,1112.78Z" style="fill:white;"/>
                </g>
                <g transform="matrix(-0.643312,4.79217e-17,-8.99888e-17,-0.653858,7832.72,6858.33)">
                    <path d="M4741.91,1444.67C4746.24,1436.15 4753.07,1431.13 4760.32,1431.13C4767.58,1431.13 4774.41,1436.15 4778.74,1444.67C4791.95,1470.67 4809.98,1506.14 4824.86,1535.42C4830.03,1545.61 4830.85,1559.21 4826.95,1570.56C4823.05,1581.91 4815.12,1589.08 4806.44,1589.08C4778.3,1589.08 4742.35,1589.08 4714.21,1589.08C4705.53,1589.08 4697.6,1581.91 4693.7,1570.56C4689.8,1559.21 4690.61,1545.61 4695.79,1535.42C4710.67,1506.14 4728.7,1470.67 4741.91,1444.67Z" style="fill:white;"/>
                </g>
            </g>
        </g>
    </g>
</svg>
